<svg id="Layer_1" data-name="Layer 1" xmlns="http://www.w3.org/2000/svg" viewBox="0 0 400.5 359"><defs><style>.cls-1{fill:#0a41ff;}.cls-1,.cls-8{stroke:#f2f2f2;stroke-linecap:round;stroke-linejoin:round;stroke-width:0.5px;}.cls-1,.cls-2{opacity:0.2;}.cls-2,.cls-27{fill:#0cf;}.cls-3{font-size:15.46px;}.cls-19,.cls-22,.cls-26,.cls-28,.cls-29,.cls-3,.cls-5,.cls-9{fill:#fff;}.cls-19,.cls-22,.cls-23,.cls-26,.cls-28,.cls-29,.cls-3,.cls-5,.cls-6,.cls-9{font-family:Inter-Black, Inter;font-weight:800;}.cls-4{letter-spacing:-0.05em;}.cls-5,.cls-6{font-size:9.82px;}.cls-6{fill:#41dce1;}.cls-7{letter-spacing:-0.05em;}.cls-8{fill:none;}.cls-9{font-size:8.36px;}.cls-10{letter-spacing:-0.09em;}.cls-11{letter-spacing:0em;}.cls-12{letter-spacing:-0.09em;}.cls-13{letter-spacing:-0.03em;}.cls-14{fill:#0096df;}.cls-15{letter-spacing:-0.05em;}.cls-16{letter-spacing:-0.13em;}.cls-17{letter-spacing:-0.09em;}.cls-18{letter-spacing:0em;}.cls-19{font-size:12px;}.cls-20{letter-spacing:-0.03em;}.cls-21{letter-spacing:0em;}.cls-22,.cls-23{font-size:8.08px;}.cls-23{fill:#00a99d;}.cls-24{letter-spacing:-0.03em;}.cls-25{letter-spacing:-0.05em;}.cls-26{font-size:5.03px;}.cls-27{opacity:0.3;}.cls-28{font-size:8.31px;}.cls-29{font-size:17.01px;}.cls-30{letter-spacing:-0.09em;}.cls-31{letter-spacing:-0.03em;}.cls-32{letter-spacing:-0.05em;}.cls-33{letter-spacing:-0.03em;}</style></defs><title>MMM page mock</title><rect class="cls-1" x="201.25" y="176.25" width="180" height="159" rx="8"/><rect class="cls-2" x="19.75" y="176.75" width="169" height="70" rx="8"/><rect class="cls-2" x="20.75" y="264.75" width="169" height="70" rx="8"/><text class="cls-3" transform="translate(19.3 26.64)">MONK MODE M<tspan class="cls-4" x="117.13" y="0">O</tspan><tspan x="128.73" y="0">VEMENT</tspan></text><text class="cls-5" transform="translate(282.69 26.51)">Status:</text><text class="cls-6" transform="translate(323.31 26.02)">IMPR<tspan class="cls-7" x="25.01" y="0">O</tspan><tspan x="32.38" y="0">VING</tspan></text><rect class="cls-8" x="21.25" y="46.25" width="360" height="70" rx="8"/><rect class="cls-8" x="19.94" y="176.25" width="169.06" height="70" rx="8"/><rect class="cls-8" x="201.25" y="176.25" width="180" height="159" rx="8"/><line class="cls-8" x1="21.25" y1="152.25" x2="381.25" y2="152.25"/><text class="cls-9" transform="translate(26.3 142.99)">ENVIRONMENT</text><text class="cls-9" transform="translate(117.5 142.69)">NUTRITION</text><text class="cls-9" transform="translate(192.85 142.69)">SLEEP</text><text class="cls-9" transform="translate(250.08 142.69)">MEN<tspan class="cls-10" x="19.04" y="0">T</tspan><tspan class="cls-11" x="24" y="0">AL HEA</tspan><tspan class="cls-12" x="55.21" y="0">L</tspan><tspan x="59.26" y="0">TH</tspan></text><text class="cls-9" transform="translate(351.56 142.69)">MIND</text><path class="cls-8" d="M85.5,403.5" transform="translate(-75.25 -48.25)"/><path class="cls-8" d="M465.5,403.5" transform="translate(-75.25 -48.25)"/><path class="cls-8" d="M75.5,407V58.89a10.2,10.2,0,0,1,10-10.39h380a10.2,10.2,0,0,1,10,10.39V407" transform="translate(-75.25 -48.25)"/><text class="cls-9" transform="translate(29.14 193.98)">COURSE COMPLETION</text><line class="cls-8" x1="29.25" y1="201.25" x2="182.25" y2="201.25"/><rect class="cls-8" x="20.32" y="264.75" width="169.06" height="70" rx="8"/><text class="cls-9" transform="translate(29.51 282.48)">CONTENT <tspan class="cls-13" x="43.5" y="0">T</tspan><tspan x="48.95" y="0">O LEARN</tspan></text><line class="cls-8" x1="29.63" y1="289.75" x2="182.63" y2="289.75"/><rect class="cls-14" x="28.25" y="213.25" width="119" height="15"/><rect class="cls-8" x="28.25" y="213.25" width="153" height="15"/><text class="cls-9" transform="translate(210.73 193.98)"><tspan class="cls-15">D</tspan><tspan x="5.75" y="0">AI</tspan><tspan class="cls-16" x="14.83" y="0">L</tspan><tspan class="cls-11" x="18.5" y="0">Y SCHEDULE</tspan></text><text class="cls-9" transform="translate(232.75 217.98)">• <tspan class="cls-17" x="4.99" y="0">W</tspan><tspan class="cls-18" x="13.42" y="0">AKE UP - 6AM</tspan></text><rect class="cls-2" x="20.75" y="45.75" width="360" height="70" rx="8"/><text class="cls-19" transform="translate(29.62 63.3)">Cur<tspan class="cls-20" x="22.21" y="0">r</tspan><tspan class="cls-21" x="27.03" y="0">ent Goal:</tspan></text><line class="cls-8" x1="30.25" y1="68.25" x2="70.25" y2="68.25"/><line class="cls-8" x1="29.25" y1="96.25" x2="109.25" y2="96.25"/><line class="cls-8" x1="73.25" y1="68.25" x2="91.25" y2="68.25"/><line class="cls-8" x1="94.25" y1="68.25" x2="109.25" y2="68.25"/><text class="cls-22" transform="translate(29.83 89.09)">ABILITY :</text><text class="cls-19" transform="translate(115.93 61.28)">?</text><text class="cls-23" transform="translate(72.36 89.07)"><tspan class="cls-24">L</tspan><tspan class="cls-25" x="4.39" y="0">O</tspan><tspan x="10.45" y="0">W</tspan></text><text class="cls-26" transform="translate(71.04 70.09) scale(0.83 1)">/</text><text class="cls-26" transform="translate(92.28 69.58) scale(0.83 1)">/</text><rect class="cls-27" x="316.75" y="55.75" width="51" height="51" rx="8"/><text class="cls-28" transform="translate(324.72 66.01)">BOOK ID</text><text class="cls-29" transform="translate(325.37 88.94)">892</text><text class="cls-9" transform="translate(232.68 265.85)">• BREAK<tspan class="cls-30" x="33.98" y="0">F</tspan><tspan class="cls-31" x="38.1" y="0">A</tspan><tspan x="44.51" y="0">ST - 8AM</tspan></text><text class="cls-9" transform="translate(233.51 290.05)">• <tspan class="cls-32" x="4.99" y="0">W</tspan><tspan x="13.75" y="0">ORK OUT - 10AM</tspan></text><text class="cls-9" transform="translate(232.65 240.79)">• <tspan class="cls-30" x="4.99" y="0">F</tspan><tspan class="cls-33" x="9.11" y="0">A</tspan><tspan x="15.52" y="0">ST - 2 HOURS</tspan></text></svg>